<?xml version="1.0" encoding="UTF-8"?>
<svg width="1640px" height="1140px" viewBox="0 0 1640 1140" version="1.1" xmlns="http://www.w3.org/2000/svg" xmlns:xlink="http://www.w3.org/1999/xlink">
    <!-- Generator: Sketch 51.2 (57519) - http://www.bohemiancoding.com/sketch -->
    <title>Group 7</title>
    <desc>Created with Sketch.</desc>
    <defs></defs>
    <g id="Welcome" stroke="none" stroke-width="1" fill="none" fill-rule="evenodd">
        <g id="Desktop-with-Menu" transform="translate(0.000000, -5245.000000)">
            <g id="Group-7" transform="translate(-73.000000, 5245.000000)">
                <g id="Group-6" transform="translate(289.000000, 128.000000)">
                    <g id="Group-8-Copy-3" fill-rule="nonzero">
                        <polygon id="Polygon-2-Copy-2" stroke="#000000" stroke-width="8" fill="#FFFFFF" points="95.5 24 191 79 191 189 95.5 244 1.58095759e-13 189 9.76996262e-14 79"></polygon>
                        <polygon id="Polygon-2-Copy-3" fill="#337AB7" points="92 0 130 22 130 66 92 88 54 66 54 22"></polygon>
                    </g>
                    <text id="99-Lives" font-family="BebasNeueBold, Bebas Neue" font-size="44.96" font-weight="bold" line-spacing="36.5600014" fill="#000000">
                        <tspan x="30.44288" y="156.365761">99 Lives</tspan>
                    </text>
                    <text id="99" font-family="HelveticaNeue-Bold, Helvetica Neue" font-size="24.96" font-weight="bold" line-spacing="36.5600014" fill="#FFFFFF">
                        <tspan x="79.62224" y="48">99</tspan>
                    </text>
                </g>
                <g id="Group-6-Copy" transform="translate(635.500000, 434.000000) rotate(-360.000000) translate(-635.500000, -434.000000) translate(540.000000, 312.000000)">
                    <g id="Group-8-Copy-3" fill-rule="nonzero">
                        <polygon id="Polygon-2-Copy-2" stroke="#000000" stroke-width="8" fill="#FFFFFF" points="95.5 24 191 79 191 189 95.5 244 1.58095759e-13 189 9.76996262e-14 79"></polygon>
                        <polygon id="Polygon-2-Copy-3" fill="#337AB7" points="92 0 130 22 130 66 92 88 54 66 54 22"></polygon>
                    </g>
                    <text id="FUTURETENSE" font-family="BebasNeueBold, Bebas Neue" font-size="40.96" font-weight="bold" line-spacing="36.5600014" fill="#000000">
                        <tspan x="8" y="164">FUTURETENSE</tspan>
                    </text>
                    <text id="Ft" font-family="HelveticaNeue-Bold, Helvetica Neue" font-size="24.96" font-weight="bold" line-spacing="36.5600014" fill="#FFFFFF">
                        <tspan x="81.7064" y="48">Ft</tspan>
                    </text>
                </g>
                <g id="Group-6-Copy-4" transform="translate(737.000000, 184.000000) rotate(-360.000000) translate(-737.000000, -184.000000) translate(633.000000, 63.000000)">
                    <g id="Group-8-Copy-3" fill-rule="nonzero">
                        <polygon id="Polygon-2-Copy-2" stroke="#000000" stroke-width="8" fill="#FFFFFF" points="95.5 0 191 55 191 165 95.5 220 1.58095759e-13 165 9.76996262e-14 55"></polygon>
                        <polygon id="Polygon-2-Copy-3" fill="#4FBDDE" points="165 154 203.105118 176 203.105118 220 165 242 126.894882 220 126.894882 176"></polygon>
                    </g>
                    <text id="ANCHORING" font-family="BebasNeueBold, Bebas Neue" font-size="44.96" font-weight="bold" line-spacing="36.5600014" fill="#000000">
                        <tspan x="11.73952" y="132.365761">ANCHORING</tspan>
                    </text>
                    <text id="AC" font-family="HelveticaNeue-Bold, Helvetica Neue" font-size="24.96" font-weight="bold" line-spacing="36.5600014" fill="#FFFFFF">
                        <tspan x="148.70352" y="202">AC</tspan>
                    </text>
                </g>
                <g id="Group-6-Copy-12" transform="translate(95.500000, 126.500000) rotate(-360.000000) translate(-95.500000, -126.500000) " fill-rule="nonzero">
                    <g id="Group-8-Copy-3">
                        <polygon id="Polygon-2-Copy-2" stroke="#000000" stroke-width="8" fill="#FFFFFF" points="95.5 33 191 88 191 198 95.5 253 1.58095759e-13 198 9.76996262e-14 88"></polygon>
                        <polygon id="Polygon-2-Copy-3" fill="#337AB7" points="77 0 115 22 115 66 77 88 39 66 39 22"></polygon>
                    </g>
                </g>
                <g id="Group-6-Copy-5" transform="translate(902.500000, 585.000000) rotate(-360.000000) translate(-902.500000, -585.000000) translate(807.000000, 463.000000)">
                    <g id="Group-8-Copy-3" fill-rule="nonzero">
                        <polygon id="Polygon-2-Copy-2" stroke="#000000" stroke-width="8" fill="#FFFFFF" points="95.5 24 191 79 191 189 95.5 244 1.58095759e-13 189 9.76996262e-14 79"></polygon>
                        <polygon id="Polygon-2-Copy-3" fill="#4FBDDE" points="92 0 130.105118 22 130.105118 66 92 88 53.8948822 66 53.8948822 22"></polygon>
                    </g>
                    <text id="DOWN-AGING" font-family="BebasNeueBold, Bebas Neue" font-size="41.96" font-weight="bold" line-spacing="36.5600014" fill="#000000">
                        <tspan x="8.81064" y="155.047761">DOWN-AGING</tspan>
                    </text>
                    <text id="Da" font-family="HelveticaNeue-Bold, Helvetica Neue" font-size="24.96" font-weight="bold" line-spacing="36.5600014" fill="#FFFFFF">
                        <tspan x="77.0888" y="48">Da</tspan>
                    </text>
                </g>
                <g id="Group-6-Copy-7" transform="translate(1216.500000, 510.000000) rotate(-360.000000) translate(-1216.500000, -510.000000) translate(1121.000000, 388.000000)">
                    <g id="Group-8-Copy-3" fill-rule="nonzero">
                        <polygon id="Polygon-2-Copy-2" stroke="#000000" stroke-width="8" fill="#FFFFFF" points="95.5 24 191 79 191 189 95.5 244 1.58095759e-13 189 9.76996262e-14 79"></polygon>
                        <polygon id="Polygon-2-Copy-3" fill="#337AB7" points="92 0 130 22 130 66 92 88 54 66 54 22"></polygon>
                    </g>
                    <text id="ICON-TOPPLING" font-family="BebasNeueBold, Bebas Neue" font-size="37.96" font-weight="bold" line-spacing="36.5600014" fill="#000000">
                        <tspan x="8" y="161">ICON TOPPLING</tspan>
                    </text>
                    <text id="It" font-family="HelveticaNeue-Bold, Helvetica Neue" font-size="24.96" font-weight="bold" line-spacing="36.5600014" fill="#FFFFFF">
                        <tspan x="85.42544" y="48">It</tspan>
                    </text>
                </g>
                <g id="Group-6-Copy-9" transform="translate(1449.500000, 362.000000) rotate(-360.000000) translate(-1449.500000, -362.000000) translate(1354.000000, 240.000000)">
                    <g id="Group-8-Copy-3" fill-rule="nonzero">
                        <polygon id="Polygon-2-Copy-2" stroke="#000000" stroke-width="8" fill="#FFFFFF" points="95.5 24 191 79 191 189 95.5 244 1.58095759e-13 189 9.76996262e-14 79"></polygon>
                        <polygon id="Polygon-2-Copy-3" fill="#337AB7" points="92 0 130 22 130 66 92 88 54 66 54 22"></polygon>
                    </g>
                    <text id="COCOONING" font-family="BebasNeueBold, Bebas Neue" font-size="44.96" font-weight="bold" line-spacing="36.5600014" fill="#000000">
                        <tspan x="13.04336" y="156.365761">COCOONING</tspan>
                    </text>
                    <text id="99" font-family="HelveticaNeue-Bold, Helvetica Neue" font-size="24.96" font-weight="bold" line-spacing="36.5600014" fill="#FFFFFF">
                        <tspan x="79.62224" y="48">99</tspan>
                    </text>
                </g>
                <g id="Group-6-Copy-6" transform="translate(1113.500000, 796.000000) rotate(-360.000000) translate(-1113.500000, -796.000000) translate(1018.000000, 674.000000)">
                    <g id="Group-8-Copy-3" fill-rule="nonzero">
                        <polygon id="Polygon-2-Copy-2" stroke="#000000" stroke-width="8" fill="#FFFFFF" points="95.5 24 191 79 191 189 95.5 244 1.58095759e-13 189 9.76996262e-14 79"></polygon>
                        <polygon id="Polygon-2-Copy-3" fill="#337AB7" points="92 0 130 22 130 66 92 88 54 66 54 22"></polygon>
                    </g>
                    <text id="FANTASY-ADVENTURE" font-family="BebasNeueBold, Bebas Neue" font-size="44.96" font-weight="bold" line-spacing="36.5600014" fill="#000000">
                        <tspan x="29.70104" y="140.365761">FANTASY</tspan>
                        <tspan x="9.87368" y="176.925763">ADVENTURE</tspan>
                    </text>
                    <text id="Fa" font-family="HelveticaNeue-Bold, Helvetica Neue" font-size="24.96" font-weight="bold" line-spacing="36.5600014" fill="#FFFFFF">
                        <tspan x="78.93584" y="48">Fa</tspan>
                    </text>
                </g>
                <g id="Group-6-Copy-8" transform="translate(1354.500000, 1013.000000) rotate(-360.000000) translate(-1354.500000, -1013.000000) translate(1259.000000, 891.000000)">
                    <g id="Group-8-Copy-3" fill-rule="nonzero">
                        <polygon id="Polygon-2-Copy-2" stroke="#000000" stroke-width="8" fill="#FFFFFF" points="95.5 24 191 79 191 189 95.5 244 1.58095759e-13 189 9.76996262e-14 79"></polygon>
                        <polygon id="Polygon-2-Copy-3" fill="#337AB7" points="92 0 130 22 130 66 92 88 54 66 54 22"></polygon>
                    </g>
                    <text id="EVEOLUTION" font-family="BebasNeueBold, Bebas Neue" font-size="44.96" font-weight="bold" line-spacing="36.5600014" fill="#000000">
                        <tspan x="8" y="167">EVEOLUTION</tspan>
                    </text>
                    <text id="Eo" font-family="HelveticaNeue-Bold, Helvetica Neue" font-size="24.96" font-weight="bold" line-spacing="36.5600014" fill="#FFFFFF">
                        <tspan x="77.78768" y="48">Eo</tspan>
                    </text>
                </g>
                <g id="Group-6-Copy-11" transform="translate(1640.500000, 951.000000) rotate(-360.000000) translate(-1640.500000, -951.000000) translate(1545.000000, 829.000000)">
                    <g id="Group-8-Copy-3" fill-rule="nonzero">
                        <polygon id="Polygon-2-Copy-2" stroke="#000000" stroke-width="8" fill="#FFFFFF" points="95.5 24 191 79 191 189 95.5 244 1.58095759e-13 189 9.76996262e-14 79"></polygon>
                        <polygon id="Polygon-2-Copy-3" fill="#337AB7" points="92 0 130 22 130 66 92 88 54 66 54 22"></polygon>
                    </g>
                    <text id="CASHING-OUT" font-family="BebasNeueBold, Bebas Neue" font-size="44.96" font-weight="bold" line-spacing="36.5600014" fill="#000000">
                        <tspan x="30.87" y="140.365761">CASHING </tspan>
                        <tspan x="63.48848" y="176.925763">OUT</tspan>
                    </text>
                    <text id="Co" font-family="HelveticaNeue-Bold, Helvetica Neue" font-size="24.96" font-weight="bold" line-spacing="36.5600014" fill="#FFFFFF">
                        <tspan x="76.62704" y="48">Co</tspan>
                    </text>
                </g>
                <g id="Group-6-Copy-2" transform="translate(1410.500000, 727.000000) rotate(-360.000000) translate(-1410.500000, -727.000000) translate(1315.000000, 605.000000)">
                    <g id="Group-8-Copy-3" fill-rule="nonzero">
                        <polygon id="Polygon-2-Copy-2" stroke="#000000" stroke-width="8" fill="#FFFFFF" points="95.5 24 191 79 191 189 95.5 244 1.58095759e-13 189 9.76996262e-14 79"></polygon>
                        <polygon id="Polygon-2-Copy-3" fill="#4FBDDE" points="92 0 130.105118 22 130.105118 66 92 88 53.8948822 66 53.8948822 22"></polygon>
                    </g>
                    <text id="VIGILANTE-CONSUMER" font-family="BebasNeueBold, Bebas Neue" font-size="44.96" font-weight="bold" line-spacing="36.5600014" fill="#000000">
                        <tspan x="20.34936" y="140.365761">VIGILANTE</tspan>
                        <tspan x="15.33632" y="176.925763">CONSUMER</tspan>
                    </text>
                    <text id="99" font-family="HelveticaNeue-Bold, Helvetica Neue" font-size="24.96" font-weight="bold" line-spacing="36.5600014" fill="#FFFFFF">
                        <tspan x="79.62224" y="48">99</tspan>
                    </text>
                </g>
                <g id="Group-6-Copy-10" transform="translate(1627.500000, 574.000000) rotate(-360.000000) translate(-1627.500000, -574.000000) translate(1532.000000, 452.000000)">
                    <g id="Group-8-Copy-3" fill-rule="nonzero">
                        <polygon id="Polygon-2-Copy-2" stroke="#000000" stroke-width="8" fill="#FFFFFF" points="95.5 24 191 79 191 189 95.5 244 1.58095759e-13 189 9.76996262e-14 79"></polygon>
                        <polygon id="Polygon-2-Copy-3" fill="#337AB7" points="92 0 130 22 130 66 92 88 54 66 54 22"></polygon>
                    </g>
                    <text id="PLEASURE-REVENGE" font-family="BebasNeueBold, Bebas Neue" font-size="44.96" font-weight="bold" line-spacing="36.5600014" fill="#000000">
                        <tspan x="21.04624" y="140.365761">PLEASURE</tspan>
                        <tspan x="28.08248" y="176.925763">REVENGE</tspan>
                    </text>
                    <text id="Pr" font-family="HelveticaNeue-Bold, Helvetica Neue" font-size="24.96" font-weight="bold" line-spacing="36.5600014" fill="#FFFFFF">
                        <tspan x="80.32112" y="48">Pr</tspan>
                    </text>
                </g>
                <g id="Group-6-Copy-3" transform="translate(1018.500000, 305.000000) rotate(-360.000000) translate(-1018.500000, -305.000000) translate(923.000000, 173.000000)">
                    <g id="Group-8-Copy-3" fill-rule="nonzero">
                        <polygon id="Polygon-2-Copy-2" stroke="#000000" stroke-width="8" fill="#FFFFFF" points="95.5 0 191 55 191 165 95.5 220 1.58095759e-13 165 9.76996262e-14 55"></polygon>
                        <polygon id="Polygon-2-Copy-3" fill="#4FBDDE" points="92 176 130 198 130 242 92 264 54 242 54 198"></polygon>
                    </g>
                    <text id="CLANNING" font-family="BebasNeueBold, Bebas Neue" font-size="44.96" font-weight="bold" line-spacing="36.5600014" fill="#000000">
                        <tspan x="22.05784" y="132.365761">CLANNING</tspan>
                    </text>
                    <text id="Cn" font-family="HelveticaNeue-Bold, Helvetica Neue" font-size="24.96" font-weight="bold" line-spacing="36.5600014" fill="#FFFFFF">
                        <tspan x="76.85168" y="224">Cn</tspan>
                    </text>
                </g>
            </g>
        </g>
    </g>
</svg>