<svg width="1640" height="1140" viewBox="0 0 1640 1140" xmlns="http://www.w3.org/2000/svg"><title>Group 7</title><g fill="none" fill-rule="evenodd"><g fill-rule="nonzero"><path stroke="#000" stroke-width="8" fill="#FFF" d="M311.5 152l95.5 55v110l-95.5 55-95.5-55V207z"/><path fill="#337AB7" d="M308 128l38 22v44l-38 22-38-22v-44z"/></g><text font-family="BebasNeueBold, Bebas Neue" font-size="44.96" font-weight="bold" fill="#000" transform="translate(216 128)"><tspan x="30.443" y="156.366">99 Lives</tspan></text><text font-family="HelveticaNeue-Bold, Helvetica Neue" font-size="24.96" font-weight="bold" fill="#FFF" transform="translate(216 128)"><tspan x="79.622" y="48">99</tspan></text><g fill-rule="nonzero"><path stroke="#000" stroke-width="8" fill="#FFF" d="M562.5 336l95.5 55v110l-95.5 55-95.5-55V391z"/><path fill="#337AB7" d="M559 312l38 22v44l-38 22-38-22v-44z"/></g><text font-family="BebasNeueBold, Bebas Neue" font-size="40.96" font-weight="bold" fill="#000" transform="translate(467 312)"><tspan x="8" y="164">FUTURETENSE</tspan></text><text font-family="HelveticaNeue-Bold, Helvetica Neue" font-size="24.96" font-weight="bold" fill="#FFF" transform="translate(467 312)"><tspan x="81.706" y="48">Ft</tspan></text><g fill-rule="nonzero"><path stroke="#000" stroke-width="8" fill="#FFF" d="M655.5 63l95.5 55v110l-95.5 55-95.5-55V118z"/><path fill="#4FBDDE" d="M725 217l38.105 22v44L725 305l-38.105-22v-44z"/></g><text font-family="BebasNeueBold, Bebas Neue" font-size="44.96" font-weight="bold" fill="#000" transform="translate(560 63)"><tspan x="11.74" y="132.366">ANCHORING</tspan></text><text font-family="HelveticaNeue-Bold, Helvetica Neue" font-size="24.96" font-weight="bold" fill="#FFF" transform="translate(560 63)"><tspan x="148.704" y="202">AC</tspan></text><g fill-rule="nonzero"><path stroke="#000" stroke-width="8" fill="#FFF" d="M22.5 33L118 88v110l-95.5 55-95.5-55V88z"/><path fill="#337AB7" d="M4 0l38 22v44L4 88l-38-22V22z"/></g><g fill-rule="nonzero"><path stroke="#000" stroke-width="8" fill="#FFF" d="M829.5 487l95.5 55v110l-95.5 55-95.5-55V542z"/><path fill="#4FBDDE" d="M826 463l38.105 22v44L826 551l-38.105-22v-44z"/></g><text font-family="BebasNeueBold, Bebas Neue" font-size="41.96" font-weight="bold" fill="#000" transform="translate(734 463)"><tspan x="8.811" y="155.048">DOWN-AGING</tspan></text><text font-family="HelveticaNeue-Bold, Helvetica Neue" font-size="24.96" font-weight="bold" fill="#FFF" transform="translate(734 463)"><tspan x="77.089" y="48">Da</tspan></text><g fill-rule="nonzero"><path stroke="#000" stroke-width="8" fill="#FFF" d="M1143.5 412l95.5 55v110l-95.5 55-95.5-55V467z"/><path fill="#337AB7" d="M1140 388l38 22v44l-38 22-38-22v-44z"/></g><text font-family="BebasNeueBold, Bebas Neue" font-size="37.96" font-weight="bold" fill="#000" transform="translate(1048 388)"><tspan x="8" y="161">ICON TOPPLING</tspan></text><text font-family="HelveticaNeue-Bold, Helvetica Neue" font-size="24.96" font-weight="bold" fill="#FFF" transform="translate(1048 388)"><tspan x="85.425" y="48">It</tspan></text><g fill-rule="nonzero"><path stroke="#000" stroke-width="8" fill="#FFF" d="M1376.5 264l95.5 55v110l-95.5 55-95.5-55V319z"/><path fill="#337AB7" d="M1373 240l38 22v44l-38 22-38-22v-44z"/></g><text font-family="BebasNeueBold, Bebas Neue" font-size="44.96" font-weight="bold" fill="#000" transform="translate(1281 240)"><tspan x="13.043" y="156.366">COCOONING</tspan></text><text font-family="HelveticaNeue-Bold, Helvetica Neue" font-size="24.96" font-weight="bold" fill="#FFF" transform="translate(1281 240)"><tspan x="79.622" y="48">99</tspan></text><g fill-rule="nonzero"><path stroke="#000" stroke-width="8" fill="#FFF" d="M1040.5 698l95.5 55v110l-95.5 55-95.5-55V753z"/><path fill="#337AB7" d="M1037 674l38 22v44l-38 22-38-22v-44z"/></g><text font-family="BebasNeueBold, Bebas Neue" font-size="44.96" font-weight="bold" fill="#000" transform="translate(945 674)"><tspan x="29.701" y="140.366">FANTASY</tspan> <tspan x="9.874" y="176.926">ADVENTURE</tspan></text><text font-family="HelveticaNeue-Bold, Helvetica Neue" font-size="24.96" font-weight="bold" fill="#FFF" transform="translate(945 674)"><tspan x="78.936" y="48">Fa</tspan></text><g fill-rule="nonzero"><path stroke="#000" stroke-width="8" fill="#FFF" d="M1281.5 915l95.5 55v110l-95.5 55-95.5-55V970z"/><path fill="#337AB7" d="M1278 891l38 22v44l-38 22-38-22v-44z"/></g><text font-family="BebasNeueBold, Bebas Neue" font-size="44.96" font-weight="bold" fill="#000" transform="translate(1186 891)"><tspan x="8" y="167">EVEOLUTION</tspan></text><text font-family="HelveticaNeue-Bold, Helvetica Neue" font-size="24.96" font-weight="bold" fill="#FFF" transform="translate(1186 891)"><tspan x="77.788" y="48">Eo</tspan></text><g fill-rule="nonzero"><path stroke="#000" stroke-width="8" fill="#FFF" d="M1567.5 853l95.5 55v110l-95.5 55-95.5-55V908z"/><path fill="#337AB7" d="M1564 829l38 22v44l-38 22-38-22v-44z"/></g><text font-family="BebasNeueBold, Bebas Neue" font-size="44.96" font-weight="bold" fill="#000" transform="translate(1472 829)"><tspan x="30.87" y="140.366">CASHING </tspan> <tspan x="63.488" y="176.926">OUT</tspan></text><text font-family="HelveticaNeue-Bold, Helvetica Neue" font-size="24.96" font-weight="bold" fill="#FFF" transform="translate(1472 829)"><tspan x="76.627" y="48">Co</tspan></text><g fill-rule="nonzero"><path stroke="#000" stroke-width="8" fill="#FFF" d="M1337.5 629l95.5 55v110l-95.5 55-95.5-55V684z"/><path fill="#4FBDDE" d="M1334 605l38.105 22v44L1334 693l-38.105-22v-44z"/></g><text font-family="BebasNeueBold, Bebas Neue" font-size="44.96" font-weight="bold" fill="#000" transform="translate(1242 605)"><tspan x="20.349" y="140.366">VIGILANTE</tspan> <tspan x="15.336" y="176.926">CONSUMER</tspan></text><text font-family="HelveticaNeue-Bold, Helvetica Neue" font-size="24.96" font-weight="bold" fill="#FFF" transform="translate(1242 605)"><tspan x="79.622" y="48">99</tspan></text><g fill-rule="nonzero"><path stroke="#000" stroke-width="8" fill="#FFF" d="M1554.5 476l95.5 55v110l-95.5 55-95.5-55V531z"/><path fill="#337AB7" d="M1551 452l38 22v44l-38 22-38-22v-44z"/></g><text font-family="BebasNeueBold, Bebas Neue" font-size="44.96" font-weight="bold" fill="#000" transform="translate(1459 452)"><tspan x="21.046" y="140.366">PLEASURE</tspan> <tspan x="28.082" y="176.926">REVENGE</tspan></text><text font-family="HelveticaNeue-Bold, Helvetica Neue" font-size="24.96" font-weight="bold" fill="#FFF" transform="translate(1459 452)"><tspan x="80.321" y="48">Pr</tspan></text><g fill-rule="nonzero"><path stroke="#000" stroke-width="8" fill="#FFF" d="M945.5 173l95.5 55v110l-95.5 55-95.5-55V228z"/><path fill="#4FBDDE" d="M942 349l38 22v44l-38 22-38-22v-44z"/></g><text font-family="BebasNeueBold, Bebas Neue" font-size="44.96" font-weight="bold" fill="#000" transform="translate(850 173)"><tspan x="22.058" y="132.366">CLANNING</tspan></text><text font-family="HelveticaNeue-Bold, Helvetica Neue" font-size="24.96" font-weight="bold" fill="#FFF" transform="translate(850 173)"><tspan x="76.852" y="224">Cn</tspan></text></g></svg>